<?xml version="1.0" encoding="utf-8"?>
<!-- Generator: Adobe Illustrator 18.0.0, SVG Export Plug-In . SVG Version: 6.00 Build 0)  -->
<!DOCTYPE svg PUBLIC "-//W3C//DTD SVG 1.1//EN" "http://www.w3.org/Graphics/SVG/1.1/DTD/svg11.dtd">
<svg version="1.1" id="filtered" xmlns="http://www.w3.org/2000/svg" xmlns:xlink="http://www.w3.org/1999/xlink" x="0px" y="0px"
	 viewBox="0 0 150 150" enable-background="new 0 0 150 150" xml:space="preserve">
<g>
	<ellipse fill="#F04E62" cx="112.7" cy="65.7" rx="7.9" ry="8"/>
	<ellipse fill="#F04E62" cx="103.2" cy="50.2" rx="6.1" ry="6.2"/>
	<ellipse fill="#F04E62" cx="93.7" cy="37.5" rx="4.5" ry="4.6"/>
	<ellipse fill="#F04E62" cx="74.8" cy="37.5" rx="4.5" ry="4.6"/>
	<ellipse fill="#F04E62" cx="65.5" cy="28.4" rx="3.4" ry="3.4"/>
	<ellipse fill="#F04E62" cx="84" cy="28.4" rx="3.4" ry="3.4"/>
	<ellipse fill="#F04E62" cx="55.8" cy="37.5" rx="4.5" ry="4.6"/>
	<ellipse fill="#F04E62" cx="84.2" cy="50.2" rx="6.1" ry="6.2"/>
	<ellipse fill="#F04E62" cx="65.3" cy="50.2" rx="6.1" ry="6.2"/>
	<ellipse fill="#F04E62" cx="46.3" cy="50.2" rx="6.1" ry="6.2"/>
	<ellipse fill="#F04E62" cx="93.7" cy="65.7" rx="7.9" ry="8"/>
	<ellipse fill="#F04E62" cx="74.8" cy="65.7" rx="7.9" ry="8"/>
	<ellipse fill="#F04E62" cx="55.8" cy="65.7" rx="7.9" ry="8"/>
	<ellipse fill="#F04E62" cx="36.8" cy="65.7" rx="7.9" ry="8"/>
	<path fill="#F04E62" d="M122.2,74.6c-3.7,0-6.8,2.6-7.7,6.2h0c-0.2,0.9-0.9,1.5-1.8,1.5c-0.9,0-1.6-0.6-1.8-1.4
		c-0.8-3.6-3.9-6.3-7.7-6.3c-3.8,0-6.9,2.7-7.7,6.3c-0.2,0.8-0.9,1.4-1.8,1.4c-0.9,0-1.6-0.6-1.8-1.4l0,0c-0.8-3.6-3.9-6.2-7.7-6.2
		c-3.8,0-6.9,2.7-7.7,6.2c-0.2,0.8-0.9,1.4-1.8,1.4c-0.9,0-1.6-0.6-1.8-1.4l0,0c-0.8-3.6-3.9-6.2-7.7-6.2c-3.8,0-6.9,2.7-7.7,6.2
		c-0.2,0.8-0.9,1.5-1.8,1.5c-0.9,0-1.6-0.6-1.8-1.4l0,0c-0.8-3.6-3.9-6.2-7.7-6.2c-3.7,0-6.8,2.6-7.7,6.2h0
		c-0.2,0.9-0.9,1.5-1.8,1.5c-0.9,0-1.6-0.6-1.8-1.4h0c-0.8-3.6-3.9-6.2-7.7-6.2c0,0,0,0,0,0c-1.3,0-2.4,1.2-2.3,2.6
		c0.1,1.7,0.3,3.4,0.6,5.1h0c0,0,0,0.1,0,0.1c0.5,2.8,1.1,5.5,2,8.1c0,0,0,0,0,0c6.6,20,25.3,34.5,47.4,34.5
		c22.1,0,40.7-14.4,47.4-34.4c0,0,0,0,0.1,0c1.4-4.2,2.3-8.7,2.6-13.3c0.1-1.3-0.8-2.5-2.1-2.6C122.7,74.6,122.4,74.6,122.2,74.6z"
		/>
</g>
<path fill="#F04E62" d="M75,142.5c-37.2,0-67.5-30.3-67.5-67.5S37.8,7.5,75,7.5s67.5,30.3,67.5,67.5S112.2,142.5,75,142.5z M75,16.5
	c-32.3,0-58.5,26.2-58.5,58.5s26.2,58.5,58.5,58.5s58.5-26.2,58.5-58.5S107.3,16.5,75,16.5z"/>
</svg>
