<?xml version="1.0" encoding="utf-8"?>
<!-- Generator: Adobe Illustrator 18.0.0, SVG Export Plug-In . SVG Version: 6.00 Build 0)  -->
<!DOCTYPE svg PUBLIC "-//W3C//DTD SVG 1.1//EN" "http://www.w3.org/Graphics/SVG/1.1/DTD/svg11.dtd">
<svg version="1.1" id="natural" xmlns="http://www.w3.org/2000/svg" xmlns:xlink="http://www.w3.org/1999/xlink" x="0px" y="0px"
	 viewBox="0 0 150 150" enable-background="new 0 0 150 150" xml:space="preserve">
<g>
	<path fill="#F68852" d="M101.7,117.5c1.1-0.7,0.9-2.3-0.3-2.6c-1.5-0.4-3.1-0.9-4.7-1.5c-4.6-1.8-7.8-3.2-10.4-4.3
		c-9.4-4.1-11.5-4.1-21.6-0.2c-2.7,1.1-6.2,2.4-11,4.1c-1.8,0.6-3.6,1.2-5.4,1.6c-1.3,0.3-1.5,2-0.4,2.6c7.8,4.9,17.1,7.8,27.1,7.8
		C84.8,125,94,122.2,101.7,117.5z"/>
	<path fill="#F68852" d="M55.7,106.4c2.7-0.9,5-1.8,7-2.5c13-4.7,13-4.7,24.9,0c2,0.8,4.2,1.6,6.7,2.6c4.3,1.7,8.5,2.8,12.5,3.5
		c2.5,0.4,5-0.5,6.6-2.4c0.1-0.1,0.2-0.2,0.3-0.4c3.5-4.1,1.3-10.6-4.1-11.5c-3.2-0.5-6.6-1.4-10-2.7c-2.5-1-4.7-1.8-6.6-2.6
		c-16.1-6.4-18.1-6.4-35.4-0.2c-2,0.7-4.3,1.5-6.9,2.5c-3.6,1.3-7.1,2.1-10.4,2.6c-5.5,0.9-8,7.2-4.5,11.4c0.1,0.1,0.2,0.3,0.3,0.4
		c1.6,1.9,4.1,2.8,6.6,2.4C46.9,109,51.2,108,55.7,106.4z"/>
	<path fill="#F68852" d="M52.8,86.2c23.1-8.1,23.1-8.2,44.5,0.2c7.4,2.9,14.9,3.9,19.9,4.2c3.6,0.2,6.9-2.1,7.6-5.5
		c0-0.1,0-0.2,0.1-0.3c0.9-4.3-2.5-8.2-6.9-8.4c-4.5-0.3-9.7-1.2-15.3-3.4C77.1,63.1,75,63,47.9,72.6c-5.9,2.1-11.2,3-15.8,3.3
		c-4.4,0.3-7.7,4.1-6.9,8.4c0,0.1,0.1,0.3,0.1,0.4c0.7,3.5,4,5.8,7.6,5.6C38.7,89.9,45.4,88.8,52.8,86.2z"/>
	<path fill="#F68852" d="M49.8,65.9c23.9-8.4,28.2-8.5,50.4,0.2c6.1,2.4,11.6,3.5,15.9,4c5.2,0.6,9.2-4.3,7.7-9.2
		c0-0.1,0-0.1-0.1-0.2c-0.8-2.7-3.2-4.6-6-5c-3.6-0.4-7.7-1.4-12.3-3.1c-25.5-9.8-33.4-9.8-60.6-0.3c-4.7,1.7-8.9,2.6-12.6,3
		c-2.8,0.3-5.1,2.3-5.9,4.9c0,0,0,0.1,0,0.1c-1.5,5,2.6,9.9,7.8,9.3C38.9,69.1,44.1,67.9,49.8,65.9z"/>
	<path fill="#F68852" d="M34.1,45.2c-1.2,1.6,0.3,3.8,2.3,3.4c3.2-0.7,6.7-1.6,10.5-2.9c24-8.4,34-8.4,56.2,0.2
		c3.9,1.5,7.6,2.6,10.9,3.3c2,0.4,3.5-1.7,2.3-3.4C108.5,35,96.4,27.4,82.5,25.4c-6.1-0.7-12.1-0.5-18.6,0.7
		C51.7,28.7,41.3,35.7,34.1,45.2z"/>
</g>
<path fill="#F68852" d="M75,142.5c-37.2,0-67.5-30.3-67.5-67.5S37.8,7.5,75,7.5s67.5,30.3,67.5,67.5S112.2,142.5,75,142.5z M75,16.5
	c-32.3,0-58.5,26.2-58.5,58.5s26.2,58.5,58.5,58.5s58.5-26.2,58.5-58.5S107.3,16.5,75,16.5z"/>
</svg>
