<?xml version="1.0" encoding="utf-8"?>
<!-- Generator: Adobe Illustrator 18.0.0, SVG Export Plug-In . SVG Version: 6.00 Build 0)  -->
<!DOCTYPE svg PUBLIC "-//W3C//DTD SVG 1.1//EN" "http://www.w3.org/Graphics/SVG/1.1/DTD/svg11.dtd">
<svg version="1.1" id="eco" xmlns="http://www.w3.org/2000/svg" xmlns:xlink="http://www.w3.org/1999/xlink" x="0px" y="0px"
	 viewBox="0 0 150 150" enable-background="new 0 0 150 150" xml:space="preserve">
<path fill="#46BA80" d="M73,75.3C88.9,68,91.1,62.1,91.5,56.8c1.6-18.3-16-26.4-24.8-28.7c-1.3-0.3-1.3-2.2,0.1-2.4
	c2.6-0.5,5.3-0.7,8-0.8c26.5-0.4,49.3,20.6,50.9,47.1c1.5,24.2-13.9,45.1-35.6,51.6c-2.5,0.8-5.2,1.3-8,1.3
	c-14.2,0-25.7-11.5-25.7-25.7C56.4,88.3,63.3,79,73,75.3z"/>
<path fill="#46BA80" d="M75,142.5c-37.2,0-67.5-30.3-67.5-67.5S37.8,7.5,75,7.5s67.5,30.3,67.5,67.5S112.2,142.5,75,142.5z M75,16.5
	c-32.3,0-58.5,26.2-58.5,58.5s26.2,58.5,58.5,58.5s58.5-26.2,58.5-58.5S107.3,16.5,75,16.5z"/>
</svg>
