<?xml version="1.0" encoding="utf-8"?>
<!-- Generator: Adobe Illustrator 18.0.0, SVG Export Plug-In . SVG Version: 6.00 Build 0)  -->
<!DOCTYPE svg PUBLIC "-//W3C//DTD SVG 1.1//EN" "http://www.w3.org/Graphics/SVG/1.1/DTD/svg11.dtd">
<svg version="1.1" id="fountain" xmlns="http://www.w3.org/2000/svg" xmlns:xlink="http://www.w3.org/1999/xlink" x="0px" y="0px"
	 viewBox="0 0 150 150" enable-background="new 0 0 150 150" xml:space="preserve">
<g>
	<path fill="#1F92D0" d="M125,75c0-2-0.1-4-0.4-6c-0.6-4.9-6.8-6.7-10-3c-1.8,2.1-3.6,4.6-5.3,7.6c-0.5,0.9-1.5,1.4-2.5,1.4h0
		c-2.2,0-3.7-2.4-2.6-4.4c2.9-5.1,6.7-9.8,11.3-13.8c2.6-2.2,3.1-6.5,1.2-9.3c0,0-0.1-0.1-0.1-0.1c-2.4-3.6-7.4-4.3-10.6-1.5
		c-8.5,7.4-14.9,16.8-18.8,27.1c-0.4,1.1-1.5,1.9-2.7,1.9h0c-2.1,0-3.5-2.1-2.7-4c1.5-3.7,3.9-9.4,7.7-15c4.3-6.4,7.8-10,11.4-13.4
		c3.4-3.2,2.7-8.8-1.4-11.1c0,0-0.1-0.1-0.1-0.1c-2.8-1.5-6.2-1.2-8.5,1c-5.3,4.9-9.9,10.4-13.9,16.5c-0.9,1.4-3,1.4-3.9,0
		c-4-6.1-8.7-11.6-14.1-16.6c-2.3-2.1-5.7-2.4-8.3-0.9c0,0-0.1,0.1-0.1,0.1c-4.2,2.4-4.9,8.2-1.2,11.5c3.9,3.5,7.6,7.7,11.2,13.1
		c3.9,5.7,6.2,11.2,7.7,14.9c0.8,2-0.7,4.1-2.8,4.1h0c-1.2,0-2.3-0.8-2.8-1.9C58.7,62.7,52.3,53.4,43.8,46
		c-3.2-2.8-8.1-2.1-10.4,1.4c0,0-0.1,0.1-0.1,0.1c-2,3-1.5,7.1,1.3,9.5c4.4,3.9,8.1,8.5,11,13.6c1.1,2-0.3,4.4-2.6,4.4h0
		c-1,0-2-0.6-2.5-1.5c-1.5-2.7-3.3-5.1-5-7.1c-3.2-3.8-9.5-2.1-10.1,2.9C25.1,71.2,25,73.1,25,75v0l0,0c0,27.6,22.4,50,50,50
		S125,102.6,125,75L125,75L125,75z"/>
	<path fill="#1F92D0" d="M73.1,38.5c0.9,1.1,2.6,1.1,3.6,0l5.7-6.4c0.4-0.5,2-2,3.4-3.3c0.9-0.9,0.5-2.5-0.8-2.8
		c-3.2-0.7-6.6-1-10-1c-3.5,0-6.9,0.4-10.2,1.1c-1.3,0.3-1.7,1.9-0.8,2.8c1,1,2.2,2.2,3.2,3.2C69.5,34.4,71.6,36.9,73.1,38.5z"/>
</g>
<path fill="#1F92D0" d="M75,142.5c-37.2,0-67.5-30.3-67.5-67.5S37.8,7.5,75,7.5s67.5,30.3,67.5,67.5S112.2,142.5,75,142.5z M75,16.5
	c-32.3,0-58.5,26.2-58.5,58.5s26.2,58.5,58.5,58.5s58.5-26.2,58.5-58.5S107.3,16.5,75,16.5z"/>
</svg>
